<?xml version="1.0" encoding="utf-8"?>
<svg version="1.1" xmlns="http://www.w3.org/2000/svg" xmlns:xlink="http://www.w3.org/1999/xlink" x="0px" y="0px" viewBox="0 0 82 74.6" xml:space="preserve">
  <style type="text/css">
    .st0{fill:#764ABC;}
    .st1{fill:#8BD872;}
    .st2{fill:none;}
    .st3{fill:#999999;}
    .st4{enable-background:new    ;}
  </style>
  <g>
    <path class="st0" d="M53.8,40.9h-0.2c-3.1,0.1-5.5,2.7-5.4,5.8c0.1,1.5,0.7,2.8,1.6,3.7c-3.4,6.7-8.6,11.6-16.4,15.7
      c-5.3,2.8-10.8,3.8-16.3,3.1c-4.5-0.6-8-2.6-10.2-5.9c-3.2-4.9-3.5-10.2-0.8-15.5c1.9-3.8,4.9-6.6,6.8-8c-0.4-1.3-1-3.5-1.3-5.1
      C-2.9,45.2-1.4,59.4,3,66.1c3.3,5,10,8.1,17.4,8.1c2,0,4-0.2,6-0.7c12.8-2.5,22.5-10.1,28-21.4c2.9-0.3,5.1-2.8,5-5.8
      C59.3,43.3,56.8,40.9,53.8,40.9z"/>
    <path class="st0" d="M51.2,27.1c-0.9,1.4-1.8,2.9-2.5,4.4c5,0.9,9,2.7,13.4,5.7c5,3.3,8.6,7.6,10.6,12.8c1.7,4.2,1.6,8.3-0.2,11.8
      C69.7,67.1,65,70,58.8,70c-4,0-7.8-1.2-9.8-2.1c-1.1,1-3.1,2.6-4.5,3.6c4.3,2,8.7,3.1,12.9,3.1c9.6,0,16.7-5.3,19.4-10.6
      c2.9-5.8,2.7-15.8-4.8-24.3C66.4,33.2,59.8,29,51.2,27.1z"/>
    <path class="st0" d="M40.4,25.9h-1.6c-0.9-1.8-2.8-3-4.9-3h-0.2c-3.1,0.1-5.5,2.7-5.4,5.8c0.1,3,2.6,5.4,5.6,5.4h0.2
      c2.2-0.1,4.1-1.5,4.9-3.4h0.8c0.3,0,0.5,0,0.8,0c0.8-2,1.6-3.8,2.3-4.7C41.7,25.9,41.6,25.9,40.4,25.9z"/>
  </g>
  <path class="st1" d="M44.9,43.1l-8.5-3c-0.8-0.3-1.6,0.4-1.4,1.2l1.6,9.1c0.1,0.8,1.2,1.2,1.8,0.6l6.9-6.1
    C45.9,44.4,45.7,43.4,44.9,43.1z"/>
  <path class="st2" d="M86.4,4.2"/>
  <path class="st2" d="M45.6,40.1"/>
  <path class="st0" d="M81,1.6"/>
  <path class="st1" d="M43.8,41.7l-5.6-2.1c4.6-18.1,19.6-34.7,35.2-38l5.5,2.6C64.3,6.8,48.5,23.6,43.8,41.7"/>
  <g>
    <path class="st3" d="M53.8,40.9h-0.2c-3.1,0.1-5.5,2.7-5.4,5.8c0.1,1.5,0.7,2.8,1.6,3.7c-3.4,6.7-8.6,11.6-16.4,15.7
      c-5.3,2.8-10.8,3.8-16.3,3.1c-4.5-0.6-8-2.6-10.2-5.9c-3.2-4.9-3.5-10.2-0.8-15.5c1.9-3.8,4.9-6.6,6.8-8c-0.4-1.3-1-3.5-1.3-5.1
      C-2.9,45.2-1.4,59.4,3,66.1c3.3,5,10,8.1,17.4,8.1c2,0,4-0.2,6-0.7c12.8-2.5,22.5-10.1,28-21.4c2.9-0.3,5.1-2.8,5-5.8
      C59.3,43.3,56.8,40.9,53.8,40.9z"/>
    <path class="st3" d="M51.2,27.1c-0.9,1.4-1.8,2.9-2.5,4.4c5,0.9,9,2.7,13.4,5.7c5,3.3,8.6,7.6,10.6,12.8c1.7,4.2,1.6,8.3-0.2,11.8
      C69.7,67.1,65,70,58.8,70c-4,0-7.8-1.2-9.8-2.1c-1.1,1-3.1,2.6-4.5,3.6c4.3,2,8.7,3.1,12.9,3.1c9.6,0,16.7-5.3,19.4-10.6
      c2.9-5.8,2.7-15.8-4.8-24.3C66.4,33.2,59.8,29,51.2,27.1z"/>
    <path class="st3" d="M40.4,25.9h-1.6c-0.9-1.8-2.8-3-4.9-3h-0.2c-3.1,0.1-5.5,2.7-5.4,5.8c0.1,3,2.6,5.4,5.6,5.4h0.2
      c2.2-0.1,4.1-1.5,4.9-3.4h0.8c0.3,0,0.5,0,0.8,0c0.8-2,1.6-3.8,2.3-4.7C41.7,25.9,41.6,25.9,40.4,25.9z"/>
    <path class="st3" d="M54.3,23.1c1.3,0.3,3.5,1,5,1.5c-0.2-2.9-0.4-4.5-1.2-6.9c-1.3,1.4-2.7,2.9-3.9,4.5
      C54.3,22.4,54.3,22.6,54.3,23.1z"/>
    <path class="st3" d="M55.2,10.4C51.5,4.2,44.9,0,38.5,0c-9,0-17.3,6.5-20.6,16.1c-4.6,12.8-1.6,25.1,4,34.8
      c-0.5,0.7-0.8,1.8-0.7,2.9c0.1,3,2.6,5.4,5.6,5.4H27c3.1-0.1,5.5-2.7,5.4-5.8c-0.1-3-2.6-5.4-5.6-5.4h-0.2c-0.2,0-0.5,0-0.7,0.1
      c-4.1-6.8-5.8-14.2-5.2-22.2c0.4-6,2.4-11.2,5.9-15.5c2.9-3.7,8.5-5.5,12.3-5.6c6.5-0.1,10.3,4.7,12.7,9.1
      C52.7,12.6,54,11.6,55.2,10.4z"/>
  </g>
</svg>