<?xml version="1.0" encoding="utf-8"?>
<!-- Generator: Adobe Illustrator 22.1.0, SVG Export Plug-In . SVG Version: 6.00 Build 0)  -->
<svg version="1.1" id="Layer_1" xmlns="http://www.w3.org/2000/svg" xmlns:xlink="http://www.w3.org/1999/xlink" x="0px" y="0px"
	 viewBox="0 0 396.4 74.6" style="enable-background:new 0 0 396.4 74.6;" xml:space="preserve">
<style type="text/css">
	.st0{fill:#764ABC;}
	.st1{fill:#8BD872;}
	.st2{fill:none;}
	.st3{fill:#999999;}
	.st4{enable-background:new    ;}
</style>
<g>
	<path class="st0" d="M53.8,40.9h-0.2c-3.1,0.1-5.5,2.7-5.4,5.8c0.1,1.5,0.7,2.8,1.6,3.7c-3.4,6.7-8.6,11.6-16.4,15.7
		c-5.3,2.8-10.8,3.8-16.3,3.1c-4.5-0.6-8-2.6-10.2-5.9c-3.2-4.9-3.5-10.2-0.8-15.5c1.9-3.8,4.9-6.6,6.8-8c-0.4-1.3-1-3.5-1.3-5.1
		C-2.9,45.2-1.4,59.4,3,66.1c3.3,5,10,8.1,17.4,8.1c2,0,4-0.2,6-0.7c12.8-2.5,22.5-10.1,28-21.4c2.9-0.3,5.1-2.8,5-5.8
		C59.3,43.3,56.8,40.9,53.8,40.9z"/>
	<path class="st0" d="M51.2,27.1c-0.9,1.4-1.8,2.9-2.5,4.4c5,0.9,9,2.7,13.4,5.7c5,3.3,8.6,7.6,10.6,12.8c1.7,4.2,1.6,8.3-0.2,11.8
		C69.7,67.1,65,70,58.8,70c-4,0-7.8-1.2-9.8-2.1c-1.1,1-3.1,2.6-4.5,3.6c4.3,2,8.7,3.1,12.9,3.1c9.6,0,16.7-5.3,19.4-10.6
		c2.9-5.8,2.7-15.8-4.8-24.3C66.4,33.2,59.8,29,51.2,27.1z"/>
	<path class="st0" d="M40.4,25.9h-1.6c-0.9-1.8-2.8-3-4.9-3h-0.2c-3.1,0.1-5.5,2.7-5.4,5.8c0.1,3,2.6,5.4,5.6,5.4h0.2
		c2.2-0.1,4.1-1.5,4.9-3.4h0.8c0.3,0,0.5,0,0.8,0c0.8-2,1.6-3.8,2.3-4.7C41.7,25.9,41.6,25.9,40.4,25.9z"/>
</g>
<path class="st1" d="M44.9,43.1l-8.5-3c-0.8-0.3-1.6,0.4-1.4,1.2l1.6,9.1c0.1,0.8,1.2,1.2,1.8,0.6l6.9-6.1
	C45.9,44.4,45.7,43.4,44.9,43.1z"/>
<path class="st2" d="M86.4,4.2"/>
<path class="st2" d="M45.6,40.1"/>
<path class="st0" d="M81,1.6"/>
<path class="st1" d="M43.8,41.7l-5.6-2.1c4.6-18.1,19.6-34.7,35.2-38l5.5,2.6C64.3,6.8,48.5,23.6,43.8,41.7"/>
<g>
	<path class="st3" d="M53.8,40.9h-0.2c-3.1,0.1-5.5,2.7-5.4,5.8c0.1,1.5,0.7,2.8,1.6,3.7c-3.4,6.7-8.6,11.6-16.4,15.7
		c-5.3,2.8-10.8,3.8-16.3,3.1c-4.5-0.6-8-2.6-10.2-5.9c-3.2-4.9-3.5-10.2-0.8-15.5c1.9-3.8,4.9-6.6,6.8-8c-0.4-1.3-1-3.5-1.3-5.1
		C-2.9,45.2-1.4,59.4,3,66.1c3.3,5,10,8.1,17.4,8.1c2,0,4-0.2,6-0.7c12.8-2.5,22.5-10.1,28-21.4c2.9-0.3,5.1-2.8,5-5.8
		C59.3,43.3,56.8,40.9,53.8,40.9z"/>
	<path class="st3" d="M51.2,27.1c-0.9,1.4-1.8,2.9-2.5,4.4c5,0.9,9,2.7,13.4,5.7c5,3.3,8.6,7.6,10.6,12.8c1.7,4.2,1.6,8.3-0.2,11.8
		C69.7,67.1,65,70,58.8,70c-4,0-7.8-1.2-9.8-2.1c-1.1,1-3.1,2.6-4.5,3.6c4.3,2,8.7,3.1,12.9,3.1c9.6,0,16.7-5.3,19.4-10.6
		c2.9-5.8,2.7-15.8-4.8-24.3C66.4,33.2,59.8,29,51.2,27.1z"/>
	<path class="st3" d="M40.4,25.9h-1.6c-0.9-1.8-2.8-3-4.9-3h-0.2c-3.1,0.1-5.5,2.7-5.4,5.8c0.1,3,2.6,5.4,5.6,5.4h0.2
		c2.2-0.1,4.1-1.5,4.9-3.4h0.8c0.3,0,0.5,0,0.8,0c0.8-2,1.6-3.8,2.3-4.7C41.7,25.9,41.6,25.9,40.4,25.9z"/>
	<path class="st3" d="M54.3,23.1c1.3,0.3,3.5,1,5,1.5c-0.2-2.9-0.4-4.5-1.2-6.9c-1.3,1.4-2.7,2.9-3.9,4.5
		C54.3,22.4,54.3,22.6,54.3,23.1z"/>
	<path class="st3" d="M55.2,10.4C51.5,4.2,44.9,0,38.5,0c-9,0-17.3,6.5-20.6,16.1c-4.6,12.8-1.6,25.1,4,34.8
		c-0.5,0.7-0.8,1.8-0.7,2.9c0.1,3,2.6,5.4,5.6,5.4H27c3.1-0.1,5.5-2.7,5.4-5.8c-0.1-3-2.6-5.4-5.6-5.4h-0.2c-0.2,0-0.5,0-0.7,0.1
		c-4.1-6.8-5.8-14.2-5.2-22.2c0.4-6,2.4-11.2,5.9-15.5c2.9-3.7,8.5-5.5,12.3-5.6c6.5-0.1,10.3,4.7,12.7,9.1
		C52.7,12.6,54,11.6,55.2,10.4z"/>
</g>
<g class="st4">
	<path class="st3" d="M125.5,54.4h-6.7c-1.2,0-2.1-0.5-2.7-1.4l-5.3-9.3c-0.2-0.4-0.5-0.7-0.8-0.9c-0.3-0.2-0.7-0.3-1.3-0.3h-1.9
		v11.9h-7.4V22.3h10.4c2.3,0,4.3,0.2,5.9,0.7c1.6,0.5,3,1.1,4,2c1,0.9,1.8,1.9,2.3,3c0.5,1.2,0.7,2.4,0.7,3.8c0,1-0.1,2-0.4,3
		s-0.7,1.8-1.2,2.6c-0.5,0.8-1.2,1.5-2,2.1s-1.7,1.1-2.8,1.5c0.5,0.2,0.9,0.6,1.4,0.9c0.4,0.4,0.8,0.8,1.1,1.3L125.5,54.4z
		 M109.6,37.4c1,0,1.9-0.1,2.6-0.4c0.7-0.3,1.3-0.6,1.8-1.1c0.5-0.5,0.8-1,1-1.6c0.2-0.6,0.3-1.3,0.3-2c0-1.4-0.5-2.5-1.4-3.3
		c-0.9-0.8-2.3-1.2-4.3-1.2h-3v9.5H109.6z"/>
	<path class="st3" d="M131.5,44.2c0.2,1.9,0.8,3.3,1.7,4.2c0.9,0.9,2.2,1.3,3.6,1.3c0.8,0,1.5-0.1,2-0.3c0.6-0.2,1.1-0.4,1.5-0.6
		c0.4-0.2,0.9-0.4,1.2-0.6c0.4-0.2,0.8-0.3,1.2-0.3c0.5,0,1,0.2,1.2,0.6l2,2.4c-0.7,0.8-1.5,1.5-2.3,2s-1.7,0.9-2.5,1.2
		c-0.9,0.3-1.7,0.5-2.6,0.6c-0.9,0.1-1.7,0.2-2.5,0.2c-1.6,0-3.1-0.3-4.5-0.8s-2.6-1.3-3.7-2.3c-1.1-1-1.9-2.3-2.5-3.8
		s-0.9-3.3-0.9-5.3c0-1.5,0.3-3,0.8-4.3c0.5-1.4,1.3-2.6,2.2-3.6c1-1,2.2-1.8,3.5-2.4s3-0.9,4.7-0.9c1.5,0,2.9,0.2,4.2,0.7
		c1.3,0.5,2.3,1.2,3.2,2s1.6,2,2.1,3.3c0.5,1.3,0.8,2.8,0.8,4.4c0,0.5,0,0.9-0.1,1.3c0,0.3-0.1,0.6-0.2,0.8
		c-0.1,0.2-0.3,0.3-0.5,0.4c-0.2,0.1-0.5,0.1-0.8,0.1H131.5z M140.1,40.3c0-0.5-0.1-1.1-0.2-1.6c-0.1-0.5-0.4-1-0.7-1.4
		c-0.3-0.4-0.7-0.7-1.2-1c-0.5-0.2-1.1-0.4-1.9-0.4c-1.3,0-2.3,0.4-3,1.1s-1.2,1.8-1.5,3.2H140.1z"/>
	<path class="st3" d="M170.3,21.5v33h-4.2c-0.9,0-1.4-0.4-1.7-1.1l-0.5-1.7c-0.5,0.5-0.9,0.9-1.4,1.3c-0.5,0.4-1,0.7-1.6,1
		s-1.2,0.5-1.9,0.7s-1.4,0.2-2.2,0.2c-1.2,0-2.3-0.3-3.3-0.8c-1-0.5-1.9-1.3-2.6-2.3c-0.7-1-1.3-2.2-1.7-3.7
		c-0.4-1.4-0.6-3.1-0.6-4.9c0-1.7,0.2-3.3,0.7-4.7s1.1-2.7,2-3.8c0.9-1.1,1.9-1.9,3.1-2.5s2.5-0.9,4-0.9c1.2,0,2.2,0.2,3,0.5
		c0.8,0.3,1.5,0.8,2.2,1.4V21.5H170.3z M163.5,37.7c-0.5-0.6-1.1-1-1.7-1.2c-0.6-0.2-1.2-0.3-1.9-0.3c-0.6,0-1.2,0.1-1.7,0.4
		s-1,0.7-1.4,1.2c-0.4,0.6-0.7,1.3-0.9,2.1c-0.2,0.9-0.3,1.9-0.3,3.2c0,1.2,0.1,2.2,0.3,3c0.2,0.8,0.4,1.5,0.7,2s0.7,0.9,1.1,1.1
		s0.9,0.3,1.5,0.3c0.5,0,1,0,1.4-0.1s0.8-0.2,1.1-0.4c0.3-0.2,0.7-0.4,1-0.7c0.3-0.3,0.6-0.6,0.9-0.9V37.7z"/>
	<path class="st3" d="M195.4,31.6v22.9h-4.2c-0.9,0-1.4-0.4-1.7-1.1l-0.4-1.3c-0.4,0.4-0.9,0.8-1.4,1.2c-0.5,0.3-1,0.6-1.5,0.9
		c-0.5,0.2-1.1,0.4-1.7,0.6s-1.3,0.2-2,0.2c-1.2,0-2.4-0.2-3.3-0.7c-1-0.4-1.8-1-2.4-1.8c-0.7-0.8-1.2-1.7-1.5-2.8
		c-0.3-1.1-0.5-2.2-0.5-3.5V31.6h6.8v14.5c0,1.1,0.3,2,0.8,2.6c0.5,0.6,1.3,0.9,2.3,0.9c0.7,0,1.5-0.2,2.1-0.5
		c0.7-0.3,1.3-0.7,1.9-1.3V31.6H195.4z"/>
	<path class="st3" d="M221.9,54.4h-6.6c-0.5,0-0.9-0.1-1.2-0.4c-0.3-0.2-0.5-0.5-0.7-0.8l-4.1-7c-0.1,0.2-0.2,0.5-0.3,0.7
		c-0.1,0.2-0.2,0.4-0.3,0.6l-3.3,5.7c-0.2,0.3-0.4,0.6-0.7,0.8c-0.3,0.2-0.6,0.4-1.1,0.4h-6.1l7.7-11.8l-7.4-11h6.6
		c0.5,0,0.8,0.1,1.1,0.2s0.4,0.3,0.6,0.6l4.1,6.8c0.1-0.3,0.2-0.5,0.3-0.8c0.1-0.3,0.3-0.5,0.4-0.8l2.9-5.1c0.2-0.3,0.4-0.6,0.7-0.7
		c0.2-0.1,0.5-0.2,0.8-0.2h6.3l-7.4,10.7L221.9,54.4z"/>
</g>
<g class="st4">
	<path class="st1" d="M233.9,54.4h-7.5V22.3h7.5V54.4z"/>
	<path class="st1" d="M245.3,34.1c0.4-0.4,0.9-0.8,1.4-1.1c0.5-0.4,1-0.7,1.5-0.9s1.1-0.4,1.7-0.6c0.6-0.1,1.3-0.2,2-0.2
		c1.2,0,2.4,0.2,3.3,0.7c1,0.4,1.8,1,2.4,1.8c0.7,0.8,1.2,1.7,1.5,2.8s0.5,2.2,0.5,3.5v14.5h-6.8V39.9c0-1.1-0.3-2-0.8-2.6
		c-0.5-0.6-1.3-0.9-2.3-0.9c-0.7,0-1.5,0.2-2.1,0.5c-0.7,0.3-1.3,0.7-1.9,1.3v16.3H239V31.6h4.2c0.9,0,1.4,0.4,1.7,1.1L245.3,34.1z"
		/>
	<path class="st1" d="M271.1,31.6v22.9c0,1.1-0.1,2.1-0.4,3c-0.3,0.9-0.7,1.8-1.3,2.5c-0.6,0.7-1.4,1.3-2.5,1.7
		c-1,0.4-2.3,0.6-3.8,0.6c-0.6,0-1.1,0-1.6-0.1s-1-0.2-1.5-0.3l0.2-3.6c0-0.3,0.1-0.5,0.3-0.7c0.2-0.1,0.5-0.2,1.1-0.2
		c0.5,0,1,0,1.3-0.1c0.3-0.1,0.6-0.2,0.8-0.5c0.2-0.2,0.3-0.5,0.4-0.9c0.1-0.4,0.1-0.9,0.1-1.4V31.6H271.1z M271.8,25.3
		c0,0.5-0.1,1.1-0.3,1.5c-0.2,0.5-0.5,0.9-0.9,1.3c-0.4,0.4-0.8,0.6-1.3,0.9c-0.5,0.2-1,0.3-1.6,0.3c-0.6,0-1.1-0.1-1.6-0.3
		c-0.5-0.2-0.9-0.5-1.3-0.9c-0.4-0.4-0.7-0.8-0.9-1.3s-0.3-1-0.3-1.5c0-0.6,0.1-1.1,0.3-1.6c0.2-0.5,0.5-0.9,0.9-1.3
		s0.8-0.7,1.3-0.9c0.5-0.2,1-0.3,1.6-0.3c0.6,0,1.1,0.1,1.6,0.3c0.5,0.2,1,0.5,1.3,0.9s0.7,0.8,0.9,1.3
		C271.7,24.3,271.8,24.8,271.8,25.3z"/>
	<path class="st1" d="M281.5,44.2c0.2,1.9,0.8,3.3,1.7,4.2c0.9,0.9,2.2,1.3,3.6,1.3c0.8,0,1.5-0.1,2-0.3c0.6-0.2,1.1-0.4,1.5-0.6
		s0.9-0.4,1.2-0.6c0.4-0.2,0.8-0.3,1.2-0.3c0.5,0,1,0.2,1.2,0.6l2,2.4c-0.7,0.8-1.5,1.5-2.3,2s-1.7,0.9-2.5,1.2
		c-0.9,0.3-1.7,0.5-2.6,0.6s-1.7,0.2-2.5,0.2c-1.6,0-3.1-0.3-4.5-0.8s-2.6-1.3-3.7-2.3c-1.1-1-1.9-2.3-2.5-3.8
		c-0.6-1.5-0.9-3.3-0.9-5.3c0-1.5,0.3-3,0.8-4.3c0.5-1.4,1.3-2.6,2.2-3.6c1-1,2.2-1.8,3.5-2.4s3-0.9,4.7-0.9c1.5,0,2.9,0.2,4.2,0.7
		c1.3,0.5,2.3,1.2,3.2,2c0.9,0.9,1.6,2,2.1,3.3c0.5,1.3,0.8,2.8,0.8,4.4c0,0.5,0,0.9-0.1,1.3c0,0.3-0.1,0.6-0.2,0.8
		c-0.1,0.2-0.3,0.3-0.5,0.4c-0.2,0.1-0.5,0.1-0.8,0.1H281.5z M290.1,40.3c0-0.5-0.1-1.1-0.2-1.6c-0.1-0.5-0.4-1-0.7-1.4
		c-0.3-0.4-0.7-0.7-1.2-1c-0.5-0.2-1.1-0.4-1.9-0.4c-1.3,0-2.3,0.4-3,1.1c-0.7,0.7-1.2,1.8-1.5,3.2H290.1z"/>
	<path class="st1" d="M316.4,37c-0.2,0.2-0.4,0.4-0.6,0.6c-0.2,0.1-0.5,0.2-0.8,0.2c-0.3,0-0.6-0.1-0.9-0.2
		c-0.3-0.2-0.6-0.3-0.9-0.5c-0.3-0.2-0.7-0.4-1.2-0.5c-0.5-0.2-1-0.2-1.7-0.2c-0.8,0-1.6,0.2-2.2,0.5c-0.6,0.3-1.1,0.7-1.5,1.3
		s-0.7,1.3-0.9,2.1c-0.2,0.8-0.3,1.8-0.3,2.8c0,2.2,0.4,3.9,1.3,5s2,1.8,3.5,1.8c0.8,0,1.4-0.1,1.9-0.3c0.5-0.2,0.9-0.4,1.2-0.7
		c0.3-0.2,0.6-0.5,0.9-0.7c0.3-0.2,0.6-0.3,1-0.3c0.5,0,1,0.2,1.2,0.6l2,2.4c-0.7,0.8-1.4,1.5-2.2,2s-1.6,0.9-2.4,1.2
		c-0.8,0.3-1.6,0.5-2.5,0.6c-0.8,0.1-1.6,0.2-2.4,0.2c-1.4,0-2.7-0.3-4-0.8c-1.3-0.5-2.4-1.3-3.3-2.3c-1-1-1.7-2.2-2.3-3.7
		c-0.6-1.5-0.8-3.1-0.8-5c0-1.6,0.2-3.2,0.7-4.6s1.2-2.7,2.2-3.7c1-1,2.2-1.9,3.6-2.5s3.1-0.9,4.9-0.9c1.8,0,3.4,0.3,4.7,0.9
		c1.4,0.6,2.6,1.4,3.7,2.5L316.4,37z"/>
	<path class="st1" d="M329.3,54.8c-1.1,0-2-0.2-2.9-0.5c-0.8-0.3-1.5-0.8-2.1-1.3c-0.6-0.6-1-1.3-1.3-2.1s-0.4-1.7-0.4-2.8V36.3
		h-1.9c-0.4,0-0.7-0.1-0.9-0.3c-0.2-0.2-0.4-0.6-0.4-1v-2.7l3.6-0.7l1.3-5.6c0.2-0.7,0.7-1.1,1.5-1.1h3.6v6.7h5.7v4.7h-5.7v11.4
		c0,0.5,0.1,1,0.4,1.3c0.3,0.3,0.6,0.5,1.1,0.5c0.2,0,0.5,0,0.6-0.1s0.3-0.1,0.4-0.2s0.2-0.1,0.4-0.2s0.2-0.1,0.4-0.1
		c0.2,0,0.4,0,0.5,0.1c0.1,0.1,0.3,0.2,0.4,0.5l2.1,3.2c-0.9,0.7-1.9,1.2-3,1.5C331.6,54.6,330.4,54.8,329.3,54.8z"/>
	<path class="st1" d="M348.3,31.2c1.7,0,3.3,0.3,4.7,0.8c1.4,0.5,2.6,1.3,3.7,2.3c1,1,1.8,2.2,2.4,3.7c0.6,1.4,0.8,3.1,0.8,4.9
		c0,1.8-0.3,3.5-0.8,4.9c-0.6,1.5-1.4,2.7-2.4,3.7s-2.2,1.8-3.7,2.4c-1.4,0.6-3,0.8-4.7,0.8c-1.7,0-3.3-0.3-4.8-0.8
		c-1.4-0.6-2.7-1.3-3.7-2.4c-1-1-1.8-2.3-2.4-3.7c-0.6-1.5-0.8-3.1-0.8-4.9c0-1.8,0.3-3.4,0.8-4.9s1.4-2.7,2.4-3.7
		c1-1,2.3-1.8,3.7-2.3S346.6,31.2,348.3,31.2z M348.3,49.7c1.6,0,2.7-0.6,3.5-1.7s1.1-2.8,1.1-5.1s-0.4-3.9-1.1-5
		c-0.7-1.1-1.9-1.7-3.5-1.7c-1.6,0-2.8,0.6-3.5,1.7c-0.8,1.1-1.1,2.8-1.1,5s0.4,3.9,1.1,5.1C345.5,49.2,346.7,49.7,348.3,49.7z"/>
	<path class="st1" d="M369.8,35.1c0.7-1.2,1.5-2.2,2.4-2.9c0.9-0.7,2-1.1,3.2-1.1c1,0,1.9,0.2,2.5,0.7l-0.4,5
		c-0.1,0.3-0.2,0.5-0.4,0.7c-0.2,0.1-0.4,0.2-0.7,0.2c-0.1,0-0.3,0-0.5,0c-0.2,0-0.4,0-0.6-0.1c-0.2,0-0.4,0-0.6-0.1
		c-0.2,0-0.4,0-0.6,0c-1,0-1.8,0.3-2.4,0.8c-0.6,0.5-1.1,1.3-1.5,2.2v13.9h-6.8V31.6h4.1c0.3,0,0.6,0,0.8,0.1
		c0.2,0.1,0.4,0.2,0.6,0.3c0.2,0.1,0.3,0.3,0.4,0.5c0.1,0.2,0.2,0.5,0.2,0.8L369.8,35.1z"/>
	<path class="st1" d="M394.7,36.6c-0.2,0.3-0.4,0.5-0.6,0.6c-0.2,0.1-0.5,0.2-0.8,0.2c-0.3,0-0.6-0.1-1-0.2s-0.7-0.3-1-0.5
		c-0.4-0.2-0.8-0.3-1.3-0.5c-0.5-0.1-1-0.2-1.6-0.2c-0.9,0-1.5,0.2-2,0.5c-0.5,0.3-0.7,0.8-0.7,1.4c0,0.4,0.2,0.8,0.5,1.1
		c0.3,0.3,0.7,0.5,1.2,0.7c0.5,0.2,1.1,0.4,1.7,0.6c0.6,0.2,1.3,0.4,1.9,0.6c0.7,0.2,1.3,0.5,1.9,0.8c0.6,0.3,1.2,0.7,1.7,1.2
		c0.5,0.5,0.9,1,1.2,1.7c0.3,0.7,0.5,1.5,0.5,2.4c0,1.1-0.2,2.2-0.6,3.1c-0.4,1-1,1.8-1.8,2.5s-1.8,1.2-3,1.6
		c-1.2,0.4-2.6,0.6-4.1,0.6c-0.8,0-1.6-0.1-2.3-0.2c-0.8-0.1-1.5-0.3-2.3-0.6s-1.4-0.5-2-0.9c-0.6-0.3-1.1-0.7-1.6-1.1l1.6-2.5
		c0.2-0.3,0.4-0.5,0.7-0.7c0.3-0.2,0.6-0.3,1-0.3c0.4,0,0.8,0.1,1.1,0.3c0.3,0.2,0.7,0.4,1,0.6c0.4,0.2,0.8,0.4,1.3,0.6
		c0.5,0.2,1.1,0.3,1.9,0.3c0.5,0,1-0.1,1.3-0.2s0.7-0.3,0.9-0.5c0.2-0.2,0.4-0.4,0.5-0.6c0.1-0.2,0.2-0.5,0.2-0.7
		c0-0.5-0.2-0.8-0.5-1.1s-0.7-0.5-1.2-0.8c-0.5-0.2-1.1-0.4-1.7-0.6c-0.6-0.2-1.3-0.4-2-0.6c-0.7-0.2-1.3-0.5-2-0.8
		c-0.6-0.3-1.2-0.7-1.7-1.3c-0.5-0.5-0.9-1.1-1.2-1.9s-0.5-1.6-0.5-2.7c0-1,0.2-1.9,0.6-2.8c0.4-0.9,0.9-1.6,1.7-2.3
		c0.7-0.7,1.7-1.2,2.8-1.6c1.1-0.4,2.5-0.6,4-0.6c0.8,0,1.6,0.1,2.4,0.2c0.8,0.1,1.5,0.4,2.2,0.6c0.7,0.3,1.3,0.6,1.9,0.9
		s1.1,0.8,1.5,1.2L394.7,36.6z"/>
</g>
</svg>
